<svg height="512" viewBox="0 0 64 64" width="512" xmlns="http://www.w3.org/2000/svg"><g id="laptop-house-building-home"><path d="m14 42h36v4h-36z" fill="#78b9eb"/><path d="m61 49v5a2.006 2.006 0 0 1 -2 2h-54a2.006 2.006 0 0 1 -2-2v-5h24v3h10v-3z" fill="#78b9eb"/><path d="m32 14-16 6.74v21.26h11v-7a5 5 0 1 1 10 0v7h11v-21.26zm-6 14h-6v-5h6zm18 0h-6v-5h6z" fill="#78b9eb"/><path d="m51 18v4l-3-1.26-16-6.74-16 6.74-3 1.26v-4l2.06-.87 16.94-7.13 7 2.95 4.98 2.09 4.96 2.09z" fill="#78b9eb"/><g fill="#006df0"><path d="m26 22h-6a1 1 0 0 0 -1 1v5a1 1 0 0 0 1 1h6a1 1 0 0 0 1-1v-5a1 1 0 0 0 -1-1zm-1 5h-4v-3h4z"/><path d="m44 22h-6a1 1 0 0 0 -1 1v5a1 1 0 0 0 1 1h6a1 1 0 0 0 1-1v-5a1 1 0 0 0 -1-1zm-1 5h-4v-3h4z"/><path d="m29 36h2v2h-2z"/><path d="m61 48v-29a3.009 3.009 0 0 0 -3-3h-9.17l-3.83-1.61v-6.39a1 1 0 0 0 -1-1h-5a1 1 0 0 0 -1 1v3.44l-5.61-2.36a.963.963 0 0 0 -.78 0l-16.44 6.92h-9.17a3.009 3.009 0 0 0 -3 3v29a1 1 0 0 0 -1 1v5a3.009 3.009 0 0 0 3 3h54a3.009 3.009 0 0 0 3-3v-5a1 1 0 0 0 -1-1zm-21-39h3v4.55l-3-1.27zm-26 9.66 18-7.58 18 7.58v1.83l-17.61-7.41a.991.991 0 0 0 -.78 0l-17.61 7.41zm18 10.34a6 6 0 0 0 -6 6v6h-9v-19.6l15-6.32 15 6.32v19.6h-9v-6a6 6 0 0 0 -6-6zm4 6v6h-8v-6a4 4 0 0 1 8 0zm13 8v2h-34v-2zm-44-24a1 1 0 0 1 1-1h6v4a1 1 0 0 0 .45.83.985.985 0 0 0 .94.09l1.61-.68v18.76h-1a1 1 0 0 0 -1 1v4a1 1 0 0 0 1 1h36a1 1 0 0 0 1-1v-4a1 1 0 0 0 -1-1h-1v-18.76l1.61.68a1.087 1.087 0 0 0 .39.08 1.011 1.011 0 0 0 1-1v-4h6a1 1 0 0 1 1 1v29h-54zm31 31v1h-8v-1zm24 4a1 1 0 0 1 -1 1h-54a1 1 0 0 1 -1-1v-4h22v2a1 1 0 0 0 1 1h10a1 1 0 0 0 1-1v-2h22z"/><path d="m6 20v3h2v-2h2v-2h-3a1 1 0 0 0 -1 1z"/></g></g></svg>