<svg id="Layer_1" enable-background="new 0 0 512 512" height="512" viewBox="0 0 512 512" width="512" xmlns="http://www.w3.org/2000/svg"><path d="m278.08 27.551c-9.964 0-19.215 3.034-26.876 8.222 2.775 7.613 4.216 16.379 4.216 26.214v14.09c41.395 9.203 70.509 33.611 70.509 79.918v-80.807c0-26.31-21.423-47.637-47.849-47.637z" fill="#3d5959"/><path d="m211.617 71.689c15.902 0 31.044 1.455 44.803 4.611v-14.313c0-39.306-22.616-61.987-62.098-61.987h-25.53c-39.482 0-71.486 31.864-71.486 71.17v84.825c0-61.398 51.177-84.306 114.311-84.306z" fill="#537982"/><path d="m129.898 91.41v-20.24c0-38.204 30.238-69.369 68.188-71.087-1.238-.05-2.488-.083-3.764-.083h-25.53c-39.482 0-71.486 31.864-71.486 71.17v84.825c0-30.255 12.432-51.158 32.592-64.585z" fill="#3d5959"/><path d="m287.416 414.928c0-24.781 9.475-47.4 25.006-64.458h-48.267v1c-3.413 25.824-25.801 45.162-52.538 45.162-26.736 0-49.124-19.338-52.538-45.162v-1h-77.897c-27.9 0-50.602 22.135-50.602 49.34v72.939c0 3.619 2.98 6.554 6.657 6.554h275.11c-15.486-17.048-24.931-39.634-24.931-64.375z" fill="#d73131"/><path d="m73.566 472.749v-72.939c0-27.205 22.701-49.34 50.602-49.34h-42.986c-27.9 0-50.602 22.135-50.602 49.34v72.939c0 3.619 2.98 6.554 6.657 6.554h42.986c-3.676 0-6.657-2.936-6.657-6.554z" fill="#a62b2b"/><path d="m243.555 316.234c-6.035 1.114-12.259 1.704-18.621 1.704h-26.634c-6.362 0-12.585-.59-18.62-1.704v34.235h-21.73c2.925 26.517 25.831 47.162 53.667 47.162 27.835 0 50.743-20.645 53.667-47.162h-21.73v-34.235z" fill="#ffaf9d"/><path d="m198.3 317.939c-6.362 0-12.585-.59-18.62-1.704v34.235h-21.73c1.122 10.179 5.198 19.486 11.358 27.099h27.44c5.692 0 10.307-4.612 10.307-10.302v-49.329h-8.755z" fill="#f69380"/><path d="m265.191 351.158c.028-.23.068-.457.093-.689h-.093z" fill="#ffaf9d"/><path d="m98.306 220.331v-50.708h-16.58c-11.601 0-21.009 9.088-21.009 20.298v24.574c0 11.211 9.408 20.299 21.009 20.299h17.68c-.722-4.721-1.1-9.549-1.1-14.463z" fill="#ffcdbe"/><path d="m341.512 169.623h-16.583v50.708c0 4.913-.378 9.742-1.1 14.463h17.683c11.604 0 21.006-9.088 21.006-20.299v-24.574c0-11.21-9.403-20.298-21.006-20.298z" fill="#ffaf9d"/><path d="m211.617 70.628c-63.134 0-114.312 22.907-114.312 84.306v65.398c0 54.458 45.217 98.607 100.994 98.607h26.634c55.779 0 100.995-44.15 100.995-98.607v-65.398c.001-61.399-51.178-84.306-114.311-84.306z" fill="#ffcdbe"/><path d="m129.416 220.331v-65.398c0-56.098 42.727-80.059 98.257-83.779-5.247-.352-10.604-.526-16.056-.526-63.134 0-114.312 22.907-114.312 84.306v65.398c0 54.458 45.217 98.607 100.994 98.607h26.634c.916 0 1.828-.014 2.738-.037-54.511-1.418-98.255-45.007-98.255-98.571z" fill="#ffaf9d"/><g fill="#ab5e2e"><path d="m222.121 224.455h-13.813c-7.686 0-13.938-6.181-13.938-13.777v-31.966c0-4.142 3.357-7.5 7.5-7.5s7.5 3.358 7.5 7.5v30.743h12.75c4.143 0 7.5 3.358 7.5 7.5.001 4.142-3.356 7.5-7.499 7.5z"/><path d="m150.382 194.748c-4.143 0-7.5-3.358-7.5-7.5v-22.695c0-4.142 3.357-7.5 7.5-7.5s7.5 3.358 7.5 7.5v22.695c0 4.142-3.358 7.5-7.5 7.5z"/><path d="m272.853 194.748c-4.143 0-7.5-3.358-7.5-7.5v-22.695c0-4.142 3.357-7.5 7.5-7.5s7.5 3.358 7.5 7.5v22.695c0 4.142-3.358 7.5-7.5 7.5z"/></g><ellipse cx="383.918" cy="414.928" fill="#00c184" rx="97.502" ry="97.072"/><path d="m318.67 414.928c0-48.141 35.202-88.089 81.374-95.742-5.246-.87-10.632-1.329-16.126-1.329-53.849 0-97.502 43.46-97.502 97.071 0 53.61 43.653 97.072 97.502 97.072 5.494 0 10.88-.46 16.126-1.33-46.172-7.652-81.374-47.602-81.374-95.742z" fill="#07b17b"/><path d="m369.565 469.931c-1.912 0-3.46-1.541-3.46-3.443v-34.035h-34.598c-1.91 0-3.458-1.541-3.458-3.444v-28.165c0-1.903 1.548-3.444 3.458-3.444h34.598v-34.034c0-1.902 1.548-3.443 3.46-3.443h28.707c1.912 0 3.46 1.541 3.46 3.443v34.034h34.598c1.91 0 3.458 1.541 3.458 3.444v28.165c0 1.903-1.548 3.444-3.458 3.444h-34.598v34.035c0 1.902-1.548 3.443-3.46 3.443z" fill="#fff"/><path d="m211.617 280.702c-19.859 0-38.014-11.646-46.251-29.671-1.722-3.767-.063-8.217 3.704-9.939 3.769-1.723 8.218-.063 9.939 3.704 5.804 12.7 18.604 20.906 32.608 20.906 14.006 0 26.806-8.206 32.608-20.906 1.721-3.766 6.167-5.426 9.938-3.705 3.768 1.722 5.426 6.171 3.704 9.939-8.234 18.025-26.39 29.672-46.25 29.672z" fill="#ab5e2e"/></svg>